# xmcd CD database file
#
# Track frame offsets:
#	150
#	44770
#	99432
#	126425
#	182235
#	235970
#	282420
#	294402
#
# Disc length: 4386 seconds
#
# Revision: 0
# Processed by: cddbd v1.5.2PL0 Copyright (c) Steve Scherf et al.
# Submitted via: CDex 1.77
#
DISCID=7c112008
DTITLE=Joe Gallant and Illuminati - Code of the West
DYEAR=1900
DGENRE=Jazz
TTITLE0=Onyx
TTITLE1=Gleaming White Porcelain
TTITLE2=Code of the West
TTITLE3=Colette
TTITLE4=Black Watch
TTITLE5=Strata
TTITLE6=Cup of Memory
TTITLE7=Unbroken Chain
EXTD=
EXTT0=
EXTT1=
EXTT2=
EXTT3=
EXTT4=
EXTT5=
EXTT6=
EXTT7=
PLAYORDER=
